<svg id="Objects" xmlns="http://www.w3.org/2000/svg" viewBox="0 0 634.26 587.67"><defs><style>.cls-1,.cls-10,.cls-11,.cls-2,.cls-3,.cls-4,.cls-5,.cls-6,.cls-7,.cls-9{fill-rule:evenodd;}.cls-2{fill:#ffba00;}.cls-3{fill:#de524f;}.cls-4{fill:#fabdad;}.cls-5,.cls-8{fill:#d17a6e;}.cls-6{fill:#fff;}.cls-7{fill:#039ede;}.cls-9{fill:#a63636;}.cls-10{fill:#f59c9c;}.cls-11{fill:#59b0db;}</style></defs><title>challenger</title><path class="cls-1" d="M315,665.93c-20.5,8.2-83.31,26.55-107.91,27.57s-82.19-1-97.67,64.38c-1.38,5.81-9.12,34.25-14.46,42.12H729.18c-12.75-11.43-23.46-24.87-23.53-32.22-0.51-57.35-44-75.87-122.25-86S483,669,476.88,653.63s-128.1-8.2-161.92,12.3h0Z" transform="translate(-94.92 -212.33)"/><path class="cls-2" d="M322.24,672c-20.5,8.2-73.59,23.52-103.63,27.8s-83.88-3.59-99.46,57.56C115.2,772.86,111,790.57,107.4,800H718.73c-13-13.14-21.65-35.36-21.49-43.08,1-48.17-56.1-59.28-125-69.34S483,669,476.88,653.63,356.05,651.52,322.24,672h0Z" transform="translate(-94.92 -212.33)"/><path class="cls-3" d="M322.24,672c-20.5,8.2-73.59,23.52-103.63,27.8-2.89.41-6,.71-9.29,1-35.28,22.54-52.46,57.4,16.15,75.62,82.21,21.84,263.34,28.26,349.4-5.14,62.53-24.26,54.53-58,20.86-80.08-7.61-1.25-15.45-2.44-23.45-3.61-53-7.74-77.26-14.57-88.45-24.31-42.58-3.56-94.47-4.26-144.33,1A94.6,94.6,0,0,0,322.24,672h0Z" transform="translate(-94.92 -212.33)"/><path class="cls-1" d="M178.83,418.64c-15.56-2.54-11.56-15.58-1.67-43.14,28.86-80.41,99.93-155.34,158.94-155,56-14.65,175.84-30,272.59,147.83,12.85,23.63,23.9,31.78,10.63,40.12-8,5-30.34,11.67-14.09,36.16,11.1,16.73,31.6,62.45,2.61,61.6-32.3-.95-14.27,36.65-22.27,77.14-5.36,27.12-7,43.09-39.57,36.38-15.15-3.12-25.49,2.25-29.76,12.48-17.5,41.92-57.91,71.25-112.75,110.53C339.76,709.85,305.09,690.91,287.36,642c-3.35-9.24-18.7-24.1-30-23.72-83.66,2.84-11.77-105.9-55.51-103.76-17.72.87-30.44-7.22-28.44-40.14,0.9-14.74,17.1-53.86,5.43-55.77h0Z" transform="translate(-94.92 -212.33)"/><path class="cls-1" d="M314.46,599.31c0.8,26.37,7.4,60.73-20.57,78.31s-64.48,22.71-86.83,45.59S216.18,778,414.35,778,630.95,713.49,573,694.7,502.54,677.62,497.74,652s-1.89-62.33-1.1-78.31-183-3.2-182.19,25.57h0Z" transform="translate(-94.92 -212.33)"/><path class="cls-4" d="M321.4,597.92c0.8,26.37,4.73,67-23.23,84.55s-49.38,26.9-61.36,41.28-20.62,48.15,177.54,48.15,202.81-59.11,144.82-75.64-64-18-68.76-43.53S493.77,589,494.57,573s-174-3.89-173.17,24.88h0Z" transform="translate(-94.92 -212.33)"/><path class="cls-5" d="M322,618.49c-0.29,24.77-.28,48.48-24.94,64s-56.4,24.83-76.21,40.94,14,45.83,140.6,47.55a26.18,26.18,0,0,0-1.86-2.08c-32.19-32.19-2.08-70.61,17.65-78.92s51.92-17.65,62.31-28c0-24.68-57.91-37.15-117.54-43.44h0Z" transform="translate(-94.92 -212.33)"/><path class="cls-1" d="M278.79,360.45c-6.4,18.47-4.2,72.74-6.29,83.21s-2.39,84,16.9,111.61c14.15,20.22,3.47,44,25.79,68.39,30.62,33.49,72.32,51.14,92.79,50.73,20.21-.4,57.89-20.86,87.25-53C517.56,597,507.45,578.78,520.59,556,536,529.22,538.23,453.5,536.14,443s4.78-65.25-1.3-83.82C517.27,305.6,469,304.51,407.3,304.74c-61.37.23-110.35,3.33-128.51,55.7h0Z" transform="translate(-94.92 -212.33)"/><path class="cls-5" d="M288.87,357.95c-9.92,16.84-10.6,75.24-12.69,85.71s-1.17,84,18.13,111.61c14.15,20.22,6.29,38.39,28.61,62.81,30.62,33.5,62.55,49.59,83,49.18,20.21-.4,50.41-17.07,79.77-49.18,22.33-24.42,16.88-40,30-62.81,15.4-26.74,18.81-101.15,16.72-111.61s4.76-75.69-10.8-95.25c-36.88-46.35-67.68-34.73-115.09-35.62-57.52-1.08-94.09,5.05-117.69,45.16h0Z" transform="translate(-94.92 -212.33)"/><path class="cls-4" d="M311.31,382.47c-8.09,17.79-24.71,46.54-19.57,76.78s-17.93,53.15,11.08,85.68c16.42,18.41,47.22,26.85,70.42,53.21,18.76,21.31,8.17,34.44,10.75,43,4,13.31,7.34,17.25,26.74,17.86,20.2,0.64,43.53-15.13,72.89-47.24,22.33-24.42-1.58-54.73,19.59-70.4,26-19.25,24.73-58.86-7.69-72.15-21.6-8.86-88.16-78.49-65.42-38,10.3,18.37,82.07,68.08,68.59,70.35C473.16,506,404.18,480.23,366,443.18c-40.75-39.53-47.41-76.72-54.69-60.71h0Z" transform="translate(-94.92 -212.33)"/><path class="cls-5" d="M367.71,591.9c5,3.35,18-3.69,26.88-8,7.43-3.59,11.85-4.93,18.28-5.25s8.69-3.14,12.6-5.33c3.36-1.88,11.72-7.92,20.52-4.83,6.14,2.15,13.93,12.61,14.88,17.67,2.94,15.71-27.8,32.71-40.71,35.56-25,5.52-47.59,1.54-49.62-5.18-0.32-.63-7.52-12.55-9.89-14-3.11-1.88,1.52-14.42,7.06-10.69h0Z" transform="translate(-94.92 -212.33)"/><path class="cls-5" d="M436.9,448.6c-9,4.86-48.68,15.41-28,24,7.39,3.07,5.9,15.9,6,22.36,0.35,37.62,17.06,35.45,7.92,53.13s6.7,8.38,13.4,3.35,9.21-15.94,1.68-25.15-11-15.66-10.05-22.36-5.78-24.59.62-20.38,8.82-6.76,20.33-7.33,34.65,7.79,46.9,2.35,17.06-21.47,5.42-27.53-21.1-10.11-28.28-7a63.48,63.48,0,0,1-35.87,4.57h0Z" transform="translate(-94.92 -212.33)"/><path class="cls-5" d="M387.88,540c2.57-13.79,11.59-5,8.94-45.48-0.68-10.41-5.88-31.12-.43-27.78,15.38,9.42-16.19-17.57-25.68-20.33-12.72-3.7-49-16.3-44.11-13.22s10.73,10.67-6.58,16-24.22,33.07,11.92,30.67,46.5-.12,44.7,12.27,12,20.28.91,34.55S384,560.6,387.88,540h0Z" transform="translate(-94.92 -212.33)"/><path class="cls-5" d="M375.19,530.05c-9.2,9.55-10.55,19.44-7.51,28.6s10.68,14.62,18.35,14.06,16.36-4.47,25.32-6.61,9.28-8.51,17.52-7.22,23.88-8.34,18.27-21-17.06-18.41-11.16-6.62,5.15,17.51-2.44,17.51-9.31-1.07-15.46,3.55S406,557,398.32,553.94s-11.82-8.17-9.76-16.78-1.54-19.39-13.37-7.11h0Z" transform="translate(-94.92 -212.33)"/><path class="cls-5" d="M419,624.83c-10,.49-34.82-0.62-34.57,15.65s-1.28-20.64-9.05-28.27,43.85,6.51,48.39,5.48,12.36-2.86,9.14-.82-10.33,3.65.54,3.86-0.33,3.41-14.44,4.09h0Z" transform="translate(-94.92 -212.33)"/><path class="cls-1" d="M440.9,465.19c6.46,2,18.23-4.45,33.4-8.16,10.35-2.53,12.52-15.46,24.83-14.13,11.11,1.2,12.65-3.31-1.57-3.64s-27.24,4.8-41.46,8.52-25.49,2.59-20.77,5.89,1.72,10.31,5.57,11.52h0Z" transform="translate(-94.92 -212.33)"/><path class="cls-6" d="M440.15,471.17c4.41-3.63,15.24-11.78,27.42-12.27s28.8,5.88,25.2,8.13-14.62,5.17-26.54,4.72-19-.32-22.58,1.25-7.91,1.8-3.5-1.83h0Z" transform="translate(-94.92 -212.33)"/><path class="cls-1" d="M479.82,470.84a14.47,14.47,0,0,0,3.15-9c0-.13,0-0.27,0-0.4A53.44,53.44,0,0,0,466.45,459a36.06,36.06,0,0,0-12.55,3,14.48,14.48,0,0,0,3.85,9.64c2.22,0,4.67.11,7.37,0.21a70.49,70.49,0,0,0,14.71-1h0Z" transform="translate(-94.92 -212.33)"/><path class="cls-7" d="M473.54,471.66a11.1,11.1,0,0,0,5.91-11.19,50.22,50.22,0,0,0-13-1.45,33.64,33.64,0,0,0-9.06,1.69q-0.05.54-.05,1.1a11.09,11.09,0,0,0,6.3,10l1.47,0.05a68.86,68.86,0,0,0,8.42-.21h0Z" transform="translate(-94.92 -212.33)"/><path class="cls-1" d="M468.43,468.13a6.31,6.31,0,0,0,5.87-8.63,43.78,43.78,0,0,0-7.85-.47,30.68,30.68,0,0,0-3.86.41,6.31,6.31,0,0,0,5.84,8.7h0Z" transform="translate(-94.92 -212.33)"/><path class="cls-6" d="M478.36,458.35a5,5,0,1,1-5,5,5,5,0,0,1,5-5h0Z" transform="translate(-94.92 -212.33)"/><path class="cls-1" d="M314.3,470.52c-3.84.87-10.77-6.48-9.2-15.07,2.26,4.45,4.09,3.92,6.8,3.4-0.64-.9-0.72-4.11.29-6.47,2.21,2.26,3.36,3.15,5.92,3.15-1.06-1,.61-4,2.55-5.74,2.32,3,3.27,3.8,5.71,3.46-0.28-1.63,2-3.16,3.83-4.94,1.52,3.8,3.55,4.57,5.64,4.89-0.62-2.77,2.48-4.21,5-4.65,0.61,3.07,1.79,3.61,5.14,4.81-0.07-1.59,1.79-2.78,4.16-2.94,0.9,3.63,4.11,3.8,6.48,5.72,0.7-1.47.43-1.9,1.9-2.64,1.66,8.69,10.89,6.74,15.71,22.05,0.37,1.18-8-1.41-8-1.37-4-11.92-44.76-6.55-52-3.65h0Z" transform="translate(-94.92 -212.33)"/><path class="cls-6" d="M369.86,470.64c-1.24-1.66-12.14-9.92-25.52-12.39-15.44-2.85-33.46,6.35-26.55,9.67,6.73,3.24,16.42,3.37,24.29,3.82s18.47,0.35,24.09,1.92,5.8-.21,3.69-3h0Z" transform="translate(-94.92 -212.33)"/><path class="cls-1" d="M396.63,558.31c-3.64-4.24-13.55-5.63-14.53-1-0.89,4.23,3.52,4.7,5.07,3.32,1.09-1,1.79-3.91,4.07-3.42s6.46,2.32,5.39,1.07h0Z" transform="translate(-94.92 -212.33)"/><path class="cls-1" d="M423.88,551.66c0.59-2.65,7-6.61,9.74-3.86s0.3,5.29-2.2,4c-3.31-1.65-8,2-7.53-.18h0Z" transform="translate(-94.92 -212.33)"/><path class="cls-8" d="M445.62,551.17c-2.38,4.06-8.95-24.36-4.44-22.42,6.49,2.79,19.43,13.34,27.74,23.71,6.49,8.1,8.91,21.47,9.57,30.28,0.61,8.24-1.84,5.37-3,.6-4.77-20-25.19-40.17-29.88-32.16h0Z" transform="translate(-94.92 -212.33)"/><path class="cls-1" d="M379,593.25c2-2.22,8.55-3.43,17.44-7.65,7.34-3.48,10-3.78,15.87-4.24s10.28-4.24,13.79-5.85A21.21,21.21,0,0,1,445.53,574c4.37,1.7,19.42,18.36,8.59,22.32-2.22,7.39-12.19,16-32.25,19.3-19.25,3.18-28.12,1.88-41.21-11.12-2.62-2.6-4.85-7.76-1.64-11.25h0Z" transform="translate(-94.92 -212.33)"/><path class="cls-1" d="M443.87,607.95c-21.78,17.15-44.19,9.25-60.19,19.11,3.43-9.8,25.19-7.18,13.22-11.52-8.57-3.11,28.88-16,47-7.58h0Z" transform="translate(-94.92 -212.33)"/><path class="cls-3" d="M380.77,594.68c1.79-1.82,9.19-3.44,17.31-7.16,7.44-3.4,9.2-3.65,14.28-4.19,6.71-.71,10.69-3.14,14.41-4.69,4.1-1.71,8.7-4.39,17-.67,15.67,7,15.5,22.83,4.24,14.21-5.85-5.35-12.69-4.19-18.73-2.64a148.13,148.13,0,0,1-22.59,3.8c-8.47.72-10.29,4.68-18.49,5.47-8.95.86-9-2.57-7.42-4.14h0Z" transform="translate(-94.92 -212.33)"/><path class="cls-9" d="M454,594.55a3.81,3.81,0,0,1-4-.12c-5.85-5.34-14.71-6.44-20.76-4.89a148.09,148.09,0,0,1-22.59,3.8c-8.47.72-10.29,5-18.49,5.79a17.33,17.33,0,0,1-6.74-.36c5.2,0.2,15.5-1.74,18.34-5.46,1.7-2.23,1.85-4.43,2.06-2s1.9,2.41,2.68.37-1.31-6.34,1.67-2.78,3,2.09,4.29-.29,1.73-1.83,3.61.72,11.65,2.46,12.29-1.38,1.53-3.69,3.75-1.48-0.2-6.31,2.3-3.83,4.53,5.28,4.63,1.22,1.69-2.21,3.84,1c3,4.61,9.43,8.59,13.12,9.65h0Z" transform="translate(-94.92 -212.33)"/><path class="cls-3" d="M382.25,602c1.27,4.68,17.94,13.46,38,10.14s28.58-8.1,30.8-15.49c-1.16.4-2.46-1.12-4.5-1.86a17.09,17.09,0,0,0-16.45-2.55c-5.49,1.82-15.27,2.67-23.67,3.82s-11.13,5.21-18.55,5.83a21.89,21.89,0,0,1-5.82-.52,1.74,1.74,0,0,0,.18.63h0Z" transform="translate(-94.92 -212.33)"/><path class="cls-5" d="M538.11,452.13c6.43-4.73,12.86-10.23,17,7.42s-5.63,50.49-10.94,58.26-8.14,19.72-16.88,18.1c7.12-26.06,10.85-65.11,10.85-83.78h0Z" transform="translate(-94.92 -212.33)"/><path class="cls-1" d="M549.79,485.33c-1.06,6-10.59,14.83-11.65,19.77s-5.65-1.41-2.12-7.77,5.11-9.93,2.82-14.48c-8-15.83,13.46-11.8,10.94,2.47h0Z" transform="translate(-94.92 -212.33)"/><path class="cls-1" d="M374.42,560.56c-12.79-8.7-3.32-24.81,3.32-27.11-4.29,5.63-10.18,16.63-3.32,27.11h0Z" transform="translate(-94.92 -212.33)"/><path class="cls-1" d="M438.62,554.67c12.79-8.7,3.32-24.81-3.32-27.11,4.29,5.63,10.18,16.63,3.32,27.11h0Z" transform="translate(-94.92 -212.33)"/><path class="cls-1" d="M398.44,559.38c5.51,2.32,19.49,2.3,24.79-4.44-4.64,11.23-19.51,10.51-24.79,4.44h0Z" transform="translate(-94.92 -212.33)"/><path class="cls-10" d="M401.93,599.78c-2.22,1.28-3.69,3.51-1.33,2.4s3.55-1.28,4.73,0,3.55,2.71,4,.48,3-3.83,4.43-2.24,3.55,1.28,4.14-1.12,4-1,5,1.92,4,1.76,2.36-1.12,1.18-3.19,3.69-1.28,4.88,0.8,2.51-1.12,2.36-4,4.58-1.76,6.94,0.32,3.4-.8-7.68-2.4-17.14-.16-17,2.08-20.39,4.79h0Z" transform="translate(-94.92 -212.33)"/><path class="cls-1" d="M436.55,472.2c5.47-6.78,20.72-20.6,34.61-21.81,16-1.4,33.37,9.76,27.86,16.48s-19.37,7.19-31.29,6.74-21.29.38-25.78,2-7.6-.64-5.4-3.37h0Zm3.61-1c4.41-3.63,15.69-9.89,27.87-10.37s28.34,4,24.75,6.23-13.79,4.34-25.71,3.9-19.81.5-23.41,2.08-7.91,1.8-3.5-1.83h0Z" transform="translate(-94.92 -212.33)"/><path class="cls-5" d="M405.33,573.09c5.92,0.86,16.34-.79,21.13-7.55-4.13,10.87-14.5,12.1-21.13,7.55h0Z" transform="translate(-94.92 -212.33)"/><path class="cls-1" d="M358.06,462.86c0,0.09,0,.18,0,0.27a14.56,14.56,0,0,1-3.22,9.15c-4.3-.22-8.86-0.31-12.76-0.53-3.43-.2-7.21-0.33-10.94-0.69a14.65,14.65,0,0,1-1.64-12.4,38.63,38.63,0,0,1,14.84-.41,54.51,54.51,0,0,1,13.71,4.61h0Z" transform="translate(-94.92 -212.33)"/><path class="cls-7" d="M354.44,461.25a11.17,11.17,0,0,1-4.33,10.83c-2.78-.1-5.54-0.19-8-0.33-2-.11-4-0.2-6.12-0.33A11.17,11.17,0,0,1,333.52,458a36.68,36.68,0,0,1,10.82.26,52,52,0,0,1,10.09,3h0Z" transform="translate(-94.92 -212.33)"/><path class="cls-1" d="M348.41,459.19a6.35,6.35,0,1,1-8.37-1.43,32.71,32.71,0,0,1,4.3.49c1.39,0.26,2.75.57,4.07,0.94h0Z" transform="translate(-94.92 -212.33)"/><path class="cls-5" d="M253.27,459.55c-4.12,17.65,1.16,47,10.94,58.26s10,20.37,17.09,17.57C273,509.22,271,473,271.37,454.32c-6.7-9.85-14.73-9.23-18.1,5.23h0Z" transform="translate(-94.92 -212.33)"/><path class="cls-1" d="M256.64,485.84c1.06,6,7.78,12.42,8.84,17.36s6.05,0.59,2.52-5.76-6.32-9.53-4-14.07c8-15.83-9.85-11.8-7.33,2.47h0Z" transform="translate(-94.92 -212.33)"/><path class="cls-1" d="M289.44,264.15c6.25,68.72,60.15,197.41,201.36,234.37-84.34-51.82-132.18-167-153.68-240.14-3.16-10.74-43-18.1-47.68,5.77h0Z" transform="translate(-94.92 -212.33)"/><path class="cls-1" d="M443.79,271.37C521.6,304.78,573,382.76,529,504.62c2.62-115.5-37.05-181.87-85.17-233.25h0Z" transform="translate(-94.92 -212.33)"/><path class="cls-1" d="M311.81,268.21c37.6,4.41,240.26-13.1,294.54,193.93,9.9,37.76,20.18,54.13-25.73,42C485,479,329.13,336.07,311.81,268.21h0Z" transform="translate(-94.92 -212.33)"/><path class="cls-1" d="M365.51,289.64c-77.82,33.41-131.79,106.17-87.78,228-2.62-115.5,39.66-176.65,87.78-228h0Z" transform="translate(-94.92 -212.33)"/><path class="cls-11" d="M366.68,305.42c10.39,35.66,60.53,84.28,99,111.54s87.87,54.81,121.46,60.31c37.81,6.2-39.58-29.17-60.56-45.25-27.35-21-80.94-87.57-31.37-64s109.8,17.85,74.17,3.93c-70.9-27.69-76.84-43.78-81.39-59.9-5-17.61,1.23-39.47,47.93-5.79,32.37,23.35,2.69-35.73-60.94-59.7-60.15-22.66-129.22-16.45-98.32-8.68,23.28,5.85,66.38,34.34,49.09,32.38-48-5.45,26.67,47.74-14.39,30.18-40.25-17.21,41.31,71.48-2.09,37.23-27.22-21.48-50.4-59.26-42.53-32.25h0Z" transform="translate(-94.92 -212.33)"/><path class="cls-11" d="M352,286.3c-2.57,36,19.29,104.17,47.58,137.61s-6.43,6.43-34.72-33.44c-24.52-34.55-32.58-61.11-45.12-63.06-6.44-1-19.66,7.85-30.1,29.61-15.43,32.15-18.66,59.17-18.66,75.89s-9,3.86-7.72-27,19.29-90-2.57-59.16-57.52,106.51-64.3,136.32-11.62-28.38,1.91-66.42,51.6-101,17.38-62.19-10.81-21.86,29.58-66.87,93.88-79.74,63-46.3-23.15,34.72-7.72,23.15,46.3-20.58,19.29-2.57-34.72,61.73-12.86,36,43.73-33.44,45-11.57h0Z" transform="translate(-94.92 -212.33)"/><path class="cls-11" d="M226.5,513.4c-3.51,24.54-3,72.49,6.32,84.17s1.83-8,4.17-27.88,12.61-3.7,18.2,18c14.5,56.38,11.16-16.68,25.52,17.92,8.87,21.38,25.15,38.58,18,14.79-2.12-7.09-6.74-16.46-10.67-31.11-21.23-79.11-18.26-1.94-30.63-34.48-11.13-29.29-24.45-79.69-31-41.46h0Z" transform="translate(-94.92 -212.33)"/><path class="cls-11" d="M575.18,521c3.5,24.54,3,65.95-6.33,77.63s-1.83-8-4.17-27.88-12.61-3.7-18.2,18C532,645.17,535.32,572.12,521,606.72c-8.87,21.38-23.19,31.39-16.74,14.79,2.68-6.9,8-12.54,12-27.18,21.23-79.11,17.61-.63,30-33.17,11.13-29.29,22.49-78.38,29-40.15h0Z" transform="translate(-94.92 -212.33)"/><path class="cls-5" d="M413.33,741.6c7.59-.27,11,0.69,17.56-2.87,5.81-3.13,4.78,7.3-16.44,9.45-30.66,3.11-21.33-41.5-20.15-30.77,1.93,17.49,11,24.48,19,24.19h0Z" transform="translate(-94.92 -212.33)"/><path class="cls-6" d="M354.11,458.73a5,5,0,1,1-5,5,5,5,0,0,1,5-5h0Z" transform="translate(-94.92 -212.33)"/><path class="cls-1" d="M373.34,472.88c-1.11-3.13-11.4-17.22-28.32-18.88-26.85-3.93-41.44,9.16-34.19,15.61,6.6,5.87,21.08,3.24,29,3.69s22.74,1,28.39,2.5c7.65,2,6.35.39,5.17-2.92h0Zm-3.48-2.23c-1.24-1.66-11.8-10-25.19-12.5-15.44-2.85-33.79,6.45-26.88,9.78,6.73,3.24,16.42,2,24.29,2.44s18.47,1.73,24.09,3.31,5.8-.22,3.69-3h0Z" transform="translate(-94.92 -212.33)"/><path class="cls-1" d="M312.11,465.85c-0.81-4.32,7.8-21.28,38.15-17.67-3.54-4.7-41.31-8.19-38.15,17.67h0Z" transform="translate(-94.92 -212.33)"/><path class="cls-1" d="M363,453.55c-9.15-1.68-18.53-8.38-27.72-15.24-10.08-7.52-23.43-18.42-34.78-10.51-10,7-12,3.58-2.62-3.89,17.32-13.83,42.78,10.13,55.5,15.41,13.91,5.77,25.34,5.86,20.94,9.19s-6.58,5.91-11.31,5h0Z" transform="translate(-94.92 -212.33)"/><path class="cls-1" d="M373.6,476.26c-2-11.54-7.91-22.73-25.49-28.51,9.95,0.57,25.76,2.71,25.49,28.51h0Z" transform="translate(-94.92 -212.33)"/><path class="cls-3" d="M121.77,748.7c-1,2.73-1.85,5.62-2.63,8.68C115.2,772.86,111,790.57,107.4,800h41.84c-15.64-16.78-17.52-31.77-27.46-51.3h0Z" transform="translate(-94.92 -212.33)"/><path class="cls-3" d="M718.73,800c-9.46-9.59-16.65-24-19.78-34.13-1.4,9.26-2.57,20.52-4.37,34.13h24.15Z" transform="translate(-94.92 -212.33)"/></svg>