<?xml version="1.0" encoding="UTF-8"?>
<svg width="230px" height="230px" viewBox="0 0 230 230" version="1.1" xmlns="http://www.w3.org/2000/svg" xmlns:xlink="http://www.w3.org/1999/xlink">
    <!-- Generator: Sketch 41.2 (35397) - http://www.bohemiancoding.com/sketch -->
    <title>Artboard</title>
    <desc>Created with Sketch.</desc>
    <defs></defs>
    <g id="Page-1" stroke="none" stroke-width="1" fill="none" fill-rule="evenodd">
        <g id="Artboard" fill="#000000">
            <path d="M19.8398438,117.976562 C19.8398438,102.924404 22.5182024,89.1784476 27.875,76.7382812 C33.2317976,64.2981149 40.4257361,53.6953563 49.4570312,44.9296875 C58.4883264,36.1640187 69.0468146,29.3242433 81.1328125,24.4101562 C93.2188104,19.4960692 106.25644,17.0390625 120.246094,17.0390625 C145.923305,17.0390625 166.177009,23.6574859 181.007812,36.8945312 C195.838616,50.1315766 205.201803,65.2056446 209.097656,82.1171875 L168.589844,94.8671875 C166.730459,86.1900608 161.904987,78.0443089 154.113281,70.4296875 C146.321576,62.8150661 134.988356,59.0078125 120.113281,59.0078125 C105.238207,59.0078125 92.2448472,64.0325018 81.1328125,74.0820312 C70.0207778,84.1315607 64.4648438,98.3202209 64.4648438,116.648438 C64.4648438,134.976654 69.9101018,149.298126 80.8007812,159.613281 C91.6914607,169.928437 104.706956,175.085938 119.847656,175.085938 C134.988357,175.085938 146.63147,171.278684 154.777344,163.664062 C162.923218,156.049441 168.147124,147.815148 170.449219,138.960938 L211.621094,150.648438 C207.636699,167.55998 198.030024,183.032482 182.800781,197.066406 C167.571538,211.100331 146.808725,218.117188 120.511719,218.117188 C91.7355332,218.117188 70.3972049,211.365953 56.4960938,197.863281 C42.5949826,184.36061 33.010443,171.433656 27.7421875,159.082031 C22.473932,146.730407 19.8398438,133.028721 19.8398438,117.976562 Z" id="C"></path>
        </g>
    </g>
</svg>