<?xml version="1.0" encoding="UTF-8"?>
<svg width="230px" height="230px" viewBox="0 0 230 230" version="1.1" xmlns="http://www.w3.org/2000/svg" xmlns:xlink="http://www.w3.org/1999/xlink">
    <!-- Generator: Sketch 41.2 (35397) - http://www.bohemiancoding.com/sketch -->
    <title>Artboard</title>
    <desc>Created with Sketch.</desc>
    <defs></defs>
    <g id="Page-1" stroke="none" stroke-width="1" fill="none" fill-rule="evenodd">
        <g id="Artboard" fill="#000000">
            <path d="M14.859375,117.710938 C14.859375,102.481695 17.5377336,88.6471976 22.8945312,76.2070312 C28.2513289,63.7668649 35.4895377,53.1641063 44.609375,44.3984375 C53.7292123,35.6327687 64.3762412,28.8815341 76.5507812,24.1445312 C88.7253213,19.4075284 101.608005,17.0390625 115.199219,17.0390625 C128.790433,17.0390625 141.606711,19.4075284 153.648438,24.1445312 C165.690164,28.8815341 176.292923,35.6327687 185.457031,44.3984375 C194.62114,53.1641063 201.881484,63.7668649 207.238281,76.2070312 C212.595079,88.6471976 215.273438,102.481695 215.273438,117.710938 C215.273438,132.94018 212.595079,146.730407 207.238281,159.082031 C201.881484,171.433656 194.62114,181.992144 185.457031,190.757812 C176.292923,199.523481 165.690164,206.274716 153.648438,211.011719 C141.606711,215.748722 128.790433,218.117188 115.199219,218.117188 C101.608005,218.117188 88.7253213,215.748722 76.5507812,211.011719 C64.3762412,206.274716 53.7292123,199.523481 44.609375,190.757812 C35.4895377,181.992144 28.2513289,171.433656 22.8945312,159.082031 C17.5377336,146.730407 14.859375,132.94018 14.859375,117.710938 Z M154.179688,160.542969 C165.158909,150.493439 170.648438,136.039157 170.648438,117.179688 C170.648438,98.2316761 165.092503,83.7995287 153.980469,73.8828125 C142.868434,63.9660963 129.98575,59.0078125 115.332031,59.0078125 C100.678312,59.0078125 87.7070877,63.9439611 76.4179688,73.8164062 C65.1288498,83.6888514 59.484375,98.143134 59.484375,117.179688 C59.484375,136.216241 65.040309,150.714794 76.1523438,160.675781 C87.2643785,170.636769 100.302009,175.617188 115.265625,175.617188 C130.229241,175.617188 143.200466,170.592498 154.179688,160.542969 Z" id="O"></path>
        </g>
    </g>
</svg>